<svg width="480" height="240" viewBox="0 0 480 240" fill="none" xmlns="http://www.w3.org/2000/svg">
<rect width="480" height="240" fill="white"/>
<rect x="21" y="41" width="169" height="158" rx="6" fill="black" fill-opacity="0.05"/>
<rect x="296" y="70" width="164" height="79" rx="6" fill="black" fill-opacity="0.05"/>
<path d="M61.6914 60H60.0894L54.0049 50.6865V60H52.4028V47.9141H54.0049L60.106 57.269V47.9141H61.6914V60ZM63.8745 55.4263C63.8745 54.5464 64.0461 53.755 64.3892 53.0522C64.7378 52.3494 65.2192 51.8071 65.8335 51.4253C66.4533 51.0435 67.1589 50.8525 67.9502 50.8525C69.1732 50.8525 70.161 51.2759 70.9136 52.1226C71.6717 52.9692 72.0508 54.0954 72.0508 55.501V55.6089C72.0508 56.4832 71.882 57.269 71.5444 57.9663C71.2124 58.658 70.7337 59.1976 70.1084 59.585C69.4886 59.9723 68.7747 60.166 67.9668 60.166C66.7493 60.166 65.7616 59.7427 65.0034 58.896C64.2508 58.0493 63.8745 56.9287 63.8745 55.5342V55.4263ZM65.4185 55.6089C65.4185 56.605 65.6481 57.4046 66.1074 58.0078C66.5723 58.611 67.1921 58.9126 67.9668 58.9126C68.7471 58.9126 69.3669 58.6082 69.8262 57.9995C70.2855 57.3853 70.5151 56.5275 70.5151 55.4263C70.5151 54.4412 70.2799 53.6444 69.8096 53.0356C69.3447 52.4214 68.7249 52.1143 67.9502 52.1143C67.1921 52.1143 66.5806 52.4159 66.1157 53.019C65.6509 53.6222 65.4185 54.4855 65.4185 55.6089ZM76.0601 48.8438V51.0186H77.7368V52.2056H76.0601V57.7754C76.0601 58.1351 76.1348 58.4062 76.2842 58.5889C76.4336 58.766 76.6882 58.8545 77.0479 58.8545C77.2249 58.8545 77.4684 58.8213 77.7783 58.7549V60C77.3743 60.1107 76.9814 60.166 76.5996 60.166C75.9134 60.166 75.396 59.9585 75.0474 59.5435C74.6987 59.1284 74.5244 58.5391 74.5244 57.7754V52.2056H72.8892V51.0186H74.5244V48.8438H76.0601ZM83.2651 60.166C82.0477 60.166 81.0571 59.7676 80.2935 58.9707C79.5298 58.1683 79.1479 57.0975 79.1479 55.7583V55.4761C79.1479 54.5851 79.3167 53.791 79.6543 53.0938C79.9974 52.391 80.4733 51.8431 81.082 51.4502C81.6963 51.0518 82.3604 50.8525 83.0742 50.8525C84.2419 50.8525 85.1494 51.2371 85.7969 52.0063C86.4443 52.7756 86.7681 53.8768 86.7681 55.3101V55.9492H80.6836C80.7057 56.8346 80.9631 57.5513 81.4556 58.0991C81.9536 58.6414 82.5845 58.9126 83.3481 58.9126C83.8905 58.9126 84.3498 58.8019 84.7261 58.5806C85.1024 58.3592 85.4316 58.0659 85.7139 57.7007L86.6519 58.4312C85.8993 59.5877 84.7703 60.166 83.2651 60.166ZM83.0742 52.1143C82.4544 52.1143 81.9342 52.3411 81.5137 52.7949C81.0931 53.2432 80.833 53.874 80.7334 54.6875H85.2324V54.5713C85.1882 53.791 84.9779 53.1878 84.6016 52.7617C84.2253 52.3301 83.7161 52.1143 83.0742 52.1143ZM91.7485 55.4927H87.6978V54.2393H91.7485V55.4927ZM95.3345 48.8438V51.0186H97.0112V52.2056H95.3345V57.7754C95.3345 58.1351 95.4092 58.4062 95.5586 58.5889C95.708 58.766 95.9626 58.8545 96.3223 58.8545C96.4993 58.8545 96.7428 58.8213 97.0527 58.7549V60C96.6488 60.1107 96.2559 60.166 95.874 60.166C95.1878 60.166 94.6704 59.9585 94.3218 59.5435C93.9731 59.1284 93.7988 58.5391 93.7988 57.7754V52.2056H92.1636V51.0186H93.7988V48.8438H95.3345ZM104.357 60C104.269 59.8229 104.197 59.5075 104.142 59.0537C103.428 59.7952 102.576 60.166 101.585 60.166C100.7 60.166 99.9718 59.917 99.4019 59.4189C98.8374 58.9154 98.5552 58.279 98.5552 57.5098C98.5552 56.5745 98.9093 55.8496 99.6177 55.335C100.332 54.8148 101.333 54.5547 102.623 54.5547H104.117V53.8491C104.117 53.3123 103.956 52.8862 103.635 52.5708C103.314 52.2498 102.841 52.0894 102.216 52.0894C101.668 52.0894 101.209 52.2277 100.838 52.5044C100.467 52.7811 100.282 53.1159 100.282 53.5088H98.7378C98.7378 53.0605 98.8955 52.6289 99.2109 52.2139C99.5319 51.7933 99.9635 51.4613 100.506 51.2178C101.054 50.9743 101.654 50.8525 102.307 50.8525C103.342 50.8525 104.153 51.1126 104.739 51.6328C105.326 52.1475 105.63 52.8586 105.652 53.7661V57.8999C105.652 58.7244 105.757 59.3802 105.968 59.8672V60H104.357ZM101.809 58.8296C102.291 58.8296 102.747 58.7051 103.179 58.4561C103.61 58.207 103.923 57.8833 104.117 57.4849V55.6421H102.913C101.032 55.6421 100.091 56.1927 100.091 57.2939C100.091 57.7754 100.251 58.1517 100.572 58.4229C100.893 58.694 101.306 58.8296 101.809 58.8296ZM110.566 55.8413L109.604 56.8457V60H108.068V47.25H109.604V54.9614L110.425 53.9736L113.223 51.0186H115.09L111.596 54.7705L115.497 60H113.696L110.566 55.8413ZM118.344 60H116.809V51.0186H118.344V60ZM116.684 48.6362C116.684 48.3872 116.759 48.1769 116.908 48.0054C117.063 47.8338 117.29 47.748 117.589 47.748C117.888 47.748 118.115 47.8338 118.27 48.0054C118.424 48.1769 118.502 48.3872 118.502 48.6362C118.502 48.8853 118.424 49.0928 118.27 49.2588C118.115 49.4248 117.888 49.5078 117.589 49.5078C117.29 49.5078 117.063 49.4248 116.908 49.2588C116.759 49.0928 116.684 48.8853 116.684 48.6362ZM122.262 51.0186L122.312 52.1475C122.998 51.2842 123.895 50.8525 125.001 50.8525C126.9 50.8525 127.857 51.9233 127.874 54.0649V60H126.338V54.0566C126.332 53.4092 126.183 52.9305 125.89 52.6206C125.602 52.3107 125.151 52.1558 124.537 52.1558C124.039 52.1558 123.601 52.2886 123.225 52.5542C122.849 52.8198 122.556 53.1685 122.345 53.6001V60H120.81V51.0186H122.262ZM129.824 55.4346C129.824 54.0345 130.148 52.9222 130.795 52.0977C131.443 51.2676 132.301 50.8525 133.369 50.8525C134.464 50.8525 135.319 51.2399 135.934 52.0146L136.008 51.0186H137.411V59.7842C137.411 60.9463 137.065 61.8621 136.374 62.5317C135.687 63.2013 134.763 63.5361 133.601 63.5361C132.954 63.5361 132.32 63.3978 131.7 63.1211C131.08 62.8444 130.607 62.4653 130.281 61.9839L131.078 61.0625C131.736 61.876 132.541 62.2827 133.493 62.2827C134.24 62.2827 134.821 62.0724 135.236 61.6519C135.657 61.2313 135.867 60.6392 135.867 59.8755V59.1035C135.253 59.8118 134.415 60.166 133.352 60.166C132.301 60.166 131.448 59.7427 130.795 58.896C130.148 58.0493 129.824 56.8955 129.824 55.4346ZM131.368 55.6089C131.368 56.6216 131.576 57.4185 131.991 57.9995C132.406 58.575 132.987 58.8628 133.734 58.8628C134.702 58.8628 135.413 58.4229 135.867 57.543V53.4424C135.397 52.5846 134.691 52.1558 133.75 52.1558C133.003 52.1558 132.42 52.4463 131.999 53.0273C131.578 53.6084 131.368 54.4689 131.368 55.6089ZM149.497 60C149.409 59.8229 149.337 59.5075 149.281 59.0537C148.567 59.7952 147.715 60.166 146.725 60.166C145.839 60.166 145.111 59.917 144.542 59.4189C143.977 58.9154 143.695 58.279 143.695 57.5098C143.695 56.5745 144.049 55.8496 144.757 55.335C145.471 54.8148 146.473 54.5547 147.762 54.5547H149.256V53.8491C149.256 53.3123 149.096 52.8862 148.775 52.5708C148.454 52.2498 147.981 52.0894 147.355 52.0894C146.808 52.0894 146.348 52.2277 145.978 52.5044C145.607 52.7811 145.421 53.1159 145.421 53.5088H143.877C143.877 53.0605 144.035 52.6289 144.351 52.2139C144.672 51.7933 145.103 51.4613 145.646 51.2178C146.193 50.9743 146.794 50.8525 147.447 50.8525C148.482 50.8525 149.292 51.1126 149.879 51.6328C150.465 52.1475 150.77 52.8586 150.792 53.7661V57.8999C150.792 58.7244 150.897 59.3802 151.107 59.8672V60H149.497ZM146.949 58.8296C147.43 58.8296 147.887 58.7051 148.318 58.4561C148.75 58.207 149.063 57.8833 149.256 57.4849V55.6421H148.053C146.171 55.6421 145.23 56.1927 145.23 57.2939C145.23 57.7754 145.391 58.1517 145.712 58.4229C146.033 58.694 146.445 58.8296 146.949 58.8296ZM160.786 55.6089C160.786 56.9757 160.473 58.077 159.848 58.9126C159.223 59.7482 158.376 60.166 157.308 60.166C156.218 60.166 155.36 59.8201 154.735 59.1284V63.4531H153.199V51.0186H154.602L154.677 52.0146C155.302 51.2399 156.171 50.8525 157.283 50.8525C158.362 50.8525 159.215 51.2593 159.84 52.0728C160.471 52.8862 160.786 54.0179 160.786 55.4678V55.6089ZM159.25 55.4346C159.25 54.4219 159.035 53.6222 158.603 53.0356C158.171 52.4491 157.579 52.1558 156.827 52.1558C155.897 52.1558 155.2 52.568 154.735 53.3926V57.6841C155.194 58.5031 155.897 58.9126 156.843 58.9126C157.579 58.9126 158.163 58.6221 158.595 58.041C159.032 57.4544 159.25 56.5856 159.25 55.4346ZM170.332 55.6089C170.332 56.9757 170.019 58.077 169.394 58.9126C168.769 59.7482 167.922 60.166 166.854 60.166C165.764 60.166 164.906 59.8201 164.281 59.1284V63.4531H162.745V51.0186H164.148L164.223 52.0146C164.848 51.2399 165.717 50.8525 166.829 50.8525C167.908 50.8525 168.76 51.2593 169.386 52.0728C170.017 52.8862 170.332 54.0179 170.332 55.4678V55.6089ZM168.796 55.4346C168.796 54.4219 168.581 53.6222 168.149 53.0356C167.717 52.4491 167.125 52.1558 166.373 52.1558C165.443 52.1558 164.746 52.568 164.281 53.3926V57.6841C164.74 58.5031 165.443 58.9126 166.389 58.9126C167.125 58.9126 167.709 58.6221 168.141 58.041C168.578 57.4544 168.796 56.5856 168.796 55.4346ZM177.521 57.6177C177.521 57.2026 177.363 56.8817 177.047 56.6548C176.737 56.4224 176.192 56.2231 175.412 56.0571C174.637 55.8911 174.02 55.6919 173.561 55.4595C173.107 55.2271 172.77 54.9504 172.548 54.6294C172.333 54.3084 172.225 53.9266 172.225 53.4839C172.225 52.7479 172.535 52.1253 173.154 51.6162C173.78 51.1071 174.576 50.8525 175.545 50.8525C176.563 50.8525 177.388 51.1154 178.019 51.6411C178.655 52.1668 178.973 52.8392 178.973 53.6582H177.429C177.429 53.2376 177.249 52.8752 176.89 52.5708C176.535 52.2664 176.087 52.1143 175.545 52.1143C174.986 52.1143 174.549 52.236 174.233 52.4795C173.918 52.723 173.76 53.0412 173.76 53.4341C173.76 53.8049 173.907 54.0843 174.2 54.2725C174.493 54.4606 175.022 54.6405 175.786 54.812C176.555 54.9836 177.177 55.1883 177.653 55.4263C178.129 55.6642 178.481 55.952 178.708 56.2896C178.94 56.6216 179.056 57.0283 179.056 57.5098C179.056 58.3122 178.735 58.9569 178.093 59.4438C177.451 59.9253 176.618 60.166 175.595 60.166C174.875 60.166 174.239 60.0387 173.686 59.7842C173.132 59.5296 172.698 59.1755 172.382 58.7217C172.072 58.2624 171.917 57.7671 171.917 57.2358H173.453C173.481 57.7505 173.686 58.16 174.067 58.4644C174.455 58.7632 174.964 58.9126 175.595 58.9126C176.176 58.9126 176.641 58.7964 176.989 58.564C177.343 58.326 177.521 58.0106 177.521 57.6177Z" fill="black"/>
<circle cx="33" cy="54" r="5" fill="#C4C4C4"/>
<path d="M83.7534 179.226H79.8687V190H78.2832V179.226H74.4067V177.914H83.7534V179.226ZM86.8413 182.106C87.522 181.27 88.4074 180.853 89.4976 180.853C91.3957 180.853 92.353 181.923 92.3696 184.065V190H90.834V184.057C90.8285 183.409 90.679 182.931 90.3857 182.621C90.098 182.311 89.647 182.156 89.0327 182.156C88.5347 182.156 88.0975 182.289 87.7212 182.554C87.3449 182.82 87.0516 183.168 86.8413 183.6V190H85.3057V177.25H86.8413V182.106ZM98.396 190.166C97.1785 190.166 96.188 189.768 95.4243 188.971C94.6606 188.168 94.2788 187.097 94.2788 185.758V185.476C94.2788 184.585 94.4476 183.791 94.7852 183.094C95.1283 182.391 95.6042 181.843 96.2129 181.45C96.8271 181.052 97.4912 180.853 98.2051 180.853C99.3727 180.853 100.28 181.237 100.928 182.006C101.575 182.776 101.899 183.877 101.899 185.31V185.949H95.8145C95.8366 186.835 96.0939 187.551 96.5864 188.099C97.0845 188.641 97.7153 188.913 98.479 188.913C99.0213 188.913 99.4806 188.802 99.8569 188.581C100.233 188.359 100.562 188.066 100.845 187.701L101.783 188.431C101.03 189.588 99.9012 190.166 98.396 190.166ZM98.2051 182.114C97.5853 182.114 97.0651 182.341 96.6445 182.795C96.224 183.243 95.9639 183.874 95.8643 184.688H100.363V184.571C100.319 183.791 100.109 183.188 99.7324 182.762C99.3561 182.33 98.847 182.114 98.2051 182.114ZM103.924 190V177.914H107.875C109.187 177.914 110.172 178.185 110.831 178.728C111.495 179.27 111.827 180.072 111.827 181.135C111.827 181.699 111.666 182.2 111.345 182.637C111.024 183.069 110.587 183.404 110.034 183.642C110.687 183.824 111.201 184.173 111.578 184.688C111.959 185.197 112.15 185.805 112.15 186.514C112.15 187.598 111.799 188.451 111.096 189.07C110.393 189.69 109.4 190 108.116 190H103.924ZM105.518 184.347V188.697H108.149C108.891 188.697 109.475 188.506 109.901 188.124C110.333 187.737 110.548 187.205 110.548 186.53C110.548 185.075 109.757 184.347 108.174 184.347H105.518ZM105.518 183.069H107.925C108.623 183.069 109.179 182.895 109.594 182.546C110.014 182.197 110.225 181.724 110.225 181.126C110.225 180.462 110.031 179.981 109.644 179.682C109.256 179.378 108.667 179.226 107.875 179.226H105.518V183.069ZM118.617 182.396C118.384 182.358 118.132 182.338 117.861 182.338C116.854 182.338 116.171 182.767 115.811 183.625V190H114.275V181.019H115.77L115.794 182.056C116.298 181.254 117.012 180.853 117.936 180.853C118.235 180.853 118.462 180.891 118.617 180.969V182.396ZM125.249 190C125.16 189.823 125.089 189.507 125.033 189.054C124.319 189.795 123.467 190.166 122.477 190.166C121.591 190.166 120.863 189.917 120.293 189.419C119.729 188.915 119.447 188.279 119.447 187.51C119.447 186.575 119.801 185.85 120.509 185.335C121.223 184.815 122.225 184.555 123.514 184.555H125.008V183.849C125.008 183.312 124.848 182.886 124.527 182.571C124.206 182.25 123.733 182.089 123.107 182.089C122.56 182.089 122.1 182.228 121.729 182.504C121.359 182.781 121.173 183.116 121.173 183.509H119.629C119.629 183.061 119.787 182.629 120.103 182.214C120.424 181.793 120.855 181.461 121.397 181.218C121.945 180.974 122.546 180.853 123.199 180.853C124.234 180.853 125.044 181.113 125.631 181.633C126.217 182.147 126.522 182.859 126.544 183.766V187.9C126.544 188.724 126.649 189.38 126.859 189.867V190H125.249ZM122.701 188.83C123.182 188.83 123.639 188.705 124.07 188.456C124.502 188.207 124.815 187.883 125.008 187.485V185.642H123.805C121.923 185.642 120.982 186.193 120.982 187.294C120.982 187.775 121.143 188.152 121.464 188.423C121.785 188.694 122.197 188.83 122.701 188.83ZM130.62 190H129.084V181.019H130.62V190ZM128.959 178.636C128.959 178.387 129.034 178.177 129.184 178.005C129.339 177.834 129.565 177.748 129.864 177.748C130.163 177.748 130.39 177.834 130.545 178.005C130.7 178.177 130.777 178.387 130.777 178.636C130.777 178.885 130.7 179.093 130.545 179.259C130.39 179.425 130.163 179.508 129.864 179.508C129.565 179.508 129.339 179.425 129.184 179.259C129.034 179.093 128.959 178.885 128.959 178.636ZM134.538 181.019L134.587 182.147C135.274 181.284 136.17 180.853 137.277 180.853C139.175 180.853 140.132 181.923 140.149 184.065V190H138.613V184.057C138.608 183.409 138.458 182.931 138.165 182.621C137.877 182.311 137.426 182.156 136.812 182.156C136.314 182.156 135.877 182.289 135.5 182.554C135.124 182.82 134.831 183.168 134.621 183.6V190H133.085V181.019H134.538Z" fill="black"/>
<circle cx="56" cy="184" r="5" fill="#C4C4C4"/>
<path d="M359.753 128.226H355.869V139H354.283V128.226H350.407V126.914H359.753V128.226ZM362.841 131.106C363.522 130.27 364.407 129.853 365.498 129.853C367.396 129.853 368.353 130.923 368.37 133.065V139H366.834V133.057C366.828 132.409 366.679 131.931 366.386 131.621C366.098 131.311 365.647 131.156 365.033 131.156C364.535 131.156 364.097 131.289 363.721 131.554C363.345 131.82 363.052 132.168 362.841 132.6V139H361.306V126.25H362.841V131.106ZM372.337 139H370.802V130.019H372.337V139ZM370.677 127.636C370.677 127.387 370.752 127.177 370.901 127.005C371.056 126.834 371.283 126.748 371.582 126.748C371.881 126.748 372.108 126.834 372.263 127.005C372.418 127.177 372.495 127.387 372.495 127.636C372.495 127.885 372.418 128.093 372.263 128.259C372.108 128.425 371.881 128.508 371.582 128.508C371.283 128.508 371.056 128.425 370.901 128.259C370.752 128.093 370.677 127.885 370.677 127.636ZM376.255 130.019L376.305 131.147C376.991 130.284 377.888 129.853 378.995 129.853C380.893 129.853 381.85 130.923 381.867 133.065V139H380.331V133.057C380.326 132.409 380.176 131.931 379.883 131.621C379.595 131.311 379.144 131.156 378.53 131.156C378.032 131.156 377.595 131.289 377.218 131.554C376.842 131.82 376.549 132.168 376.338 132.6V139H374.803V130.019H376.255ZM386.689 134.841L385.727 135.846V139H384.191V126.25H385.727V133.961L386.548 132.974L389.346 130.019H391.213L387.719 133.771L391.62 139H389.819L386.689 134.841ZM394.882 127.844V130.019H396.559V131.206H394.882V136.775C394.882 137.135 394.957 137.406 395.106 137.589C395.256 137.766 395.51 137.854 395.87 137.854C396.047 137.854 396.291 137.821 396.601 137.755V139C396.197 139.111 395.804 139.166 395.422 139.166C394.736 139.166 394.218 138.958 393.87 138.543C393.521 138.128 393.347 137.539 393.347 136.775V131.206H391.711V130.019H393.347V127.844H394.882ZM397.788 134.426C397.788 133.546 397.959 132.755 398.302 132.052C398.651 131.349 399.132 130.807 399.747 130.425C400.366 130.043 401.072 129.853 401.863 129.853C403.086 129.853 404.074 130.276 404.827 131.123C405.585 131.969 405.964 133.095 405.964 134.501V134.609C405.964 135.483 405.795 136.269 405.458 136.966C405.125 137.658 404.647 138.198 404.021 138.585C403.402 138.972 402.688 139.166 401.88 139.166C400.662 139.166 399.675 138.743 398.917 137.896C398.164 137.049 397.788 135.929 397.788 134.534V134.426ZM399.332 134.609C399.332 135.605 399.561 136.405 400.021 137.008C400.485 137.611 401.105 137.913 401.88 137.913C402.66 137.913 403.28 137.608 403.739 137C404.199 136.385 404.428 135.528 404.428 134.426C404.428 133.441 404.193 132.644 403.723 132.036C403.258 131.421 402.638 131.114 401.863 131.114C401.105 131.114 400.494 131.416 400.029 132.019C399.564 132.622 399.332 133.486 399.332 134.609ZM407.483 134.426C407.483 133.546 407.654 132.755 407.998 132.052C408.346 131.349 408.828 130.807 409.442 130.425C410.062 130.043 410.767 129.853 411.559 129.853C412.782 129.853 413.769 130.276 414.522 131.123C415.28 131.969 415.659 133.095 415.659 134.501V134.609C415.659 135.483 415.49 136.269 415.153 136.966C414.821 137.658 414.342 138.198 413.717 138.585C413.097 138.972 412.383 139.166 411.575 139.166C410.358 139.166 409.37 138.743 408.612 137.896C407.859 137.049 407.483 135.929 407.483 134.534V134.426ZM409.027 134.609C409.027 135.605 409.257 136.405 409.716 137.008C410.181 137.611 410.8 137.913 411.575 137.913C412.355 137.913 412.975 137.608 413.435 137C413.894 136.385 414.124 135.528 414.124 134.426C414.124 133.441 413.888 132.644 413.418 132.036C412.953 131.421 412.333 131.114 411.559 131.114C410.8 131.114 410.189 131.416 409.724 132.019C409.259 132.622 409.027 133.486 409.027 134.609ZM419.253 139H417.718V126.25H419.253V139Z" fill="black"/>
<circle cx="332" cy="133" r="5" fill="#C4C4C4"/>
<rect x="350" y="113" width="89" height="11" rx="3" fill="#C9D9BC"/>
<rect x="350.5" y="113.5" width="88" height="10" rx="2.5" stroke="black" stroke-opacity="0.2"/>
<path d="M368.289 122H367.347L363.768 116.521V122H362.825V114.891H363.768L367.356 120.394V114.891H368.289V122ZM369.573 119.31C369.573 118.792 369.674 118.326 369.876 117.913C370.081 117.5 370.364 117.181 370.726 116.956C371.09 116.731 371.505 116.619 371.971 116.619C372.69 116.619 373.271 116.868 373.714 117.366C374.16 117.864 374.383 118.527 374.383 119.354V119.417C374.383 119.931 374.284 120.394 374.085 120.804C373.89 121.211 373.608 121.528 373.24 121.756C372.876 121.984 372.456 122.098 371.98 122.098C371.264 122.098 370.683 121.849 370.237 121.351C369.795 120.853 369.573 120.193 369.573 119.373V119.31ZM370.481 119.417C370.481 120.003 370.617 120.473 370.887 120.828C371.16 121.183 371.525 121.36 371.98 121.36C372.439 121.36 372.804 121.181 373.074 120.823C373.344 120.462 373.479 119.957 373.479 119.31C373.479 118.73 373.341 118.261 373.064 117.903C372.791 117.542 372.426 117.361 371.971 117.361C371.525 117.361 371.165 117.539 370.892 117.894C370.618 118.248 370.481 118.756 370.481 119.417ZM376.741 115.438V116.717H377.728V117.415H376.741V120.691C376.741 120.903 376.785 121.062 376.873 121.17C376.961 121.274 377.111 121.326 377.322 121.326C377.426 121.326 377.57 121.307 377.752 121.268V122C377.514 122.065 377.283 122.098 377.059 122.098C376.655 122.098 376.351 121.976 376.146 121.731C375.94 121.487 375.838 121.141 375.838 120.691V117.415H374.876V116.717H375.838V115.438H376.741ZM380.979 122.098C380.263 122.098 379.681 121.863 379.231 121.395C378.782 120.923 378.558 120.293 378.558 119.505V119.339C378.558 118.815 378.657 118.348 378.855 117.938C379.057 117.524 379.337 117.202 379.695 116.971C380.057 116.736 380.447 116.619 380.867 116.619C381.554 116.619 382.088 116.845 382.469 117.298C382.85 117.75 383.04 118.398 383.04 119.241V119.617H379.461C379.474 120.138 379.625 120.56 379.915 120.882C380.208 121.201 380.579 121.36 381.028 121.36C381.347 121.36 381.618 121.295 381.839 121.165C382.06 121.035 382.254 120.862 382.42 120.647L382.972 121.077C382.529 121.757 381.865 122.098 380.979 122.098ZM380.867 117.361C380.503 117.361 380.197 117.495 379.949 117.762C379.702 118.025 379.549 118.396 379.49 118.875H382.137V118.807C382.111 118.348 381.987 117.993 381.766 117.742C381.544 117.488 381.245 117.361 380.867 117.361ZM385.97 119.349H383.587V118.611H385.97V119.349ZM388.079 115.438V116.717H389.065V117.415H388.079V120.691C388.079 120.903 388.123 121.062 388.211 121.17C388.299 121.274 388.449 121.326 388.66 121.326C388.764 121.326 388.908 121.307 389.09 121.268V122C388.852 122.065 388.621 122.098 388.396 122.098C387.993 122.098 387.688 121.976 387.483 121.731C387.278 121.487 387.176 121.141 387.176 120.691V117.415H386.214V116.717H387.176V115.438H388.079ZM393.387 122C393.335 121.896 393.292 121.71 393.26 121.443C392.84 121.88 392.339 122.098 391.756 122.098C391.235 122.098 390.807 121.951 390.472 121.658C390.14 121.362 389.974 120.988 389.974 120.535C389.974 119.985 390.182 119.559 390.599 119.256C391.019 118.95 391.608 118.797 392.366 118.797H393.245V118.382C393.245 118.066 393.151 117.815 392.962 117.63C392.773 117.441 392.495 117.347 392.127 117.347C391.805 117.347 391.535 117.428 391.316 117.591C391.098 117.754 390.989 117.951 390.989 118.182H390.081C390.081 117.918 390.174 117.664 390.359 117.42C390.548 117.173 390.802 116.977 391.121 116.834C391.443 116.691 391.797 116.619 392.181 116.619C392.789 116.619 393.266 116.772 393.611 117.078C393.956 117.381 394.135 117.799 394.148 118.333V120.765C394.148 121.25 394.21 121.635 394.334 121.922V122H393.387ZM391.888 121.312C392.171 121.312 392.439 121.238 392.693 121.092C392.947 120.945 393.131 120.755 393.245 120.521V119.437H392.537C391.43 119.437 390.877 119.76 390.877 120.408C390.877 120.691 390.971 120.913 391.16 121.072C391.349 121.232 391.591 121.312 391.888 121.312ZM397.039 119.554L396.473 120.145V122H395.569V114.5H396.473V119.036L396.956 118.455L398.602 116.717H399.7L397.645 118.924L399.939 122H398.88L397.039 119.554ZM401.614 122H400.711V116.717H401.614V122ZM400.638 115.315C400.638 115.169 400.682 115.045 400.77 114.944C400.861 114.843 400.994 114.793 401.17 114.793C401.346 114.793 401.479 114.843 401.57 114.944C401.661 115.045 401.707 115.169 401.707 115.315C401.707 115.462 401.661 115.584 401.57 115.682C401.479 115.779 401.346 115.828 401.17 115.828C400.994 115.828 400.861 115.779 400.77 115.682C400.682 115.584 400.638 115.462 400.638 115.315ZM403.919 116.717L403.948 117.381C404.352 116.873 404.879 116.619 405.53 116.619C406.647 116.619 407.21 117.249 407.22 118.509V122H406.316V118.504C406.313 118.123 406.225 117.841 406.053 117.659C405.883 117.477 405.618 117.386 405.257 117.386C404.964 117.386 404.707 117.464 404.485 117.62C404.264 117.776 404.091 117.981 403.968 118.235V122H403.064V116.717H403.919ZM408.367 119.314C408.367 118.491 408.558 117.837 408.938 117.352C409.319 116.863 409.824 116.619 410.452 116.619C411.097 116.619 411.6 116.847 411.961 117.303L412.005 116.717H412.83V121.873C412.83 122.557 412.627 123.095 412.22 123.489C411.816 123.883 411.272 124.08 410.589 124.08C410.208 124.08 409.835 123.999 409.471 123.836C409.106 123.673 408.828 123.45 408.636 123.167L409.104 122.625C409.492 123.104 409.965 123.343 410.525 123.343C410.965 123.343 411.307 123.219 411.551 122.972C411.798 122.724 411.922 122.376 411.922 121.927V121.473C411.561 121.889 411.067 122.098 410.442 122.098C409.824 122.098 409.323 121.849 408.938 121.351C408.558 120.853 408.367 120.174 408.367 119.314ZM409.275 119.417C409.275 120.013 409.397 120.481 409.642 120.823C409.886 121.162 410.228 121.331 410.667 121.331C411.237 121.331 411.655 121.072 411.922 120.555V118.143C411.645 117.638 411.23 117.386 410.677 117.386C410.237 117.386 409.894 117.557 409.646 117.898C409.399 118.24 409.275 118.746 409.275 119.417ZM419.939 122C419.887 121.896 419.845 121.71 419.812 121.443C419.393 121.88 418.891 122.098 418.309 122.098C417.788 122.098 417.36 121.951 417.024 121.658C416.692 121.362 416.526 120.988 416.526 120.535C416.526 119.985 416.735 119.559 417.151 119.256C417.571 118.95 418.16 118.797 418.919 118.797H419.798V118.382C419.798 118.066 419.703 117.815 419.515 117.63C419.326 117.441 419.048 117.347 418.68 117.347C418.357 117.347 418.087 117.428 417.869 117.591C417.651 117.754 417.542 117.951 417.542 118.182H416.634C416.634 117.918 416.727 117.664 416.912 117.42C417.101 117.173 417.355 116.977 417.674 116.834C417.996 116.691 418.349 116.619 418.733 116.619C419.342 116.619 419.819 116.772 420.164 117.078C420.509 117.381 420.688 117.799 420.701 118.333V120.765C420.701 121.25 420.763 121.635 420.887 121.922V122H419.939ZM418.44 121.312C418.724 121.312 418.992 121.238 419.246 121.092C419.5 120.945 419.684 120.755 419.798 120.521V119.437H419.09C417.983 119.437 417.43 119.76 417.43 120.408C417.43 120.691 417.524 120.913 417.713 121.072C417.902 121.232 418.144 121.312 418.44 121.312ZM426.58 119.417C426.58 120.221 426.396 120.869 426.028 121.36C425.66 121.852 425.162 122.098 424.534 122.098C423.893 122.098 423.388 121.894 423.021 121.487V124.031H422.117V116.717H422.942L422.986 117.303C423.354 116.847 423.865 116.619 424.52 116.619C425.154 116.619 425.656 116.858 426.023 117.337C426.395 117.815 426.58 118.481 426.58 119.334V119.417ZM425.677 119.314C425.677 118.719 425.55 118.248 425.296 117.903C425.042 117.558 424.694 117.386 424.251 117.386C423.704 117.386 423.294 117.628 423.021 118.113V120.638C423.291 121.119 423.704 121.36 424.261 121.36C424.694 121.36 425.037 121.189 425.291 120.848C425.548 120.503 425.677 119.992 425.677 119.314ZM432.195 119.417C432.195 120.221 432.011 120.869 431.644 121.36C431.276 121.852 430.778 122.098 430.149 122.098C429.508 122.098 429.004 121.894 428.636 121.487V124.031H427.732V116.717H428.558L428.602 117.303C428.969 116.847 429.48 116.619 430.135 116.619C430.77 116.619 431.271 116.858 431.639 117.337C432.01 117.815 432.195 118.481 432.195 119.334V119.417ZM431.292 119.314C431.292 118.719 431.165 118.248 430.911 117.903C430.657 117.558 430.309 117.386 429.866 117.386C429.319 117.386 428.909 117.628 428.636 118.113V120.638C428.906 121.119 429.319 121.36 429.876 121.36C430.309 121.36 430.652 121.189 430.906 120.848C431.163 120.503 431.292 119.992 431.292 119.314ZM436.424 120.599C436.424 120.354 436.331 120.166 436.146 120.032C435.963 119.896 435.643 119.778 435.184 119.681C434.728 119.583 434.365 119.466 434.095 119.329C433.828 119.192 433.629 119.03 433.499 118.841C433.372 118.652 433.309 118.427 433.309 118.167C433.309 117.734 433.491 117.368 433.855 117.068C434.223 116.769 434.692 116.619 435.262 116.619C435.861 116.619 436.346 116.774 436.717 117.083C437.091 117.392 437.278 117.788 437.278 118.27H436.37C436.37 118.022 436.264 117.809 436.053 117.63C435.844 117.451 435.581 117.361 435.262 117.361C434.933 117.361 434.676 117.433 434.49 117.576C434.305 117.719 434.212 117.907 434.212 118.138C434.212 118.356 434.298 118.52 434.471 118.631C434.643 118.742 434.954 118.847 435.403 118.948C435.856 119.049 436.222 119.17 436.502 119.31C436.782 119.45 436.989 119.619 437.122 119.817C437.259 120.013 437.327 120.252 437.327 120.535C437.327 121.007 437.138 121.386 436.761 121.673C436.383 121.956 435.893 122.098 435.291 122.098C434.868 122.098 434.493 122.023 434.168 121.873C433.842 121.723 433.587 121.515 433.401 121.248C433.219 120.978 433.128 120.687 433.128 120.374H434.031C434.048 120.677 434.168 120.918 434.393 121.097C434.62 121.272 434.92 121.36 435.291 121.36C435.633 121.36 435.906 121.292 436.111 121.155C436.32 121.015 436.424 120.83 436.424 120.599Z" fill="#2B3226"/>
<circle cx="356.5" cy="118.5" r="2.5" fill="#57624E"/>
<path d="M84.6997 94.3472C84.6997 95.5314 84.5005 96.5662 84.1021 97.4517C83.7036 98.3315 83.1392 99.0039 82.4087 99.4688C81.6782 99.9336 80.826 100.166 79.8521 100.166C78.9002 100.166 78.0563 99.9336 77.3203 99.4688C76.5843 98.9984 76.0116 98.3315 75.6021 97.4683C75.1981 96.5994 74.9906 95.5951 74.9795 94.4551V93.5835C74.9795 92.4214 75.1815 91.3949 75.5854 90.5039C75.9894 89.613 76.5594 88.9323 77.2954 88.4619C78.0369 87.986 78.8836 87.748 79.8354 87.748C80.8039 87.748 81.6561 87.9832 82.3921 88.4536C83.1336 88.9185 83.7036 89.5964 84.1021 90.4873C84.5005 91.3727 84.6997 92.4048 84.6997 93.5835V94.3472ZM83.1143 93.5669C83.1143 92.1336 82.8265 91.0352 82.251 90.2715C81.6755 89.5023 80.8703 89.1177 79.8354 89.1177C78.8283 89.1177 78.0342 89.5023 77.4531 90.2715C76.8776 91.0352 76.5815 92.0977 76.5649 93.459V94.3472C76.5649 95.7362 76.8555 96.8291 77.4365 97.626C78.0231 98.4173 78.8283 98.813 79.8521 98.813C80.8813 98.813 81.6782 98.4395 82.2427 97.6924C82.8071 96.9398 83.0977 95.8634 83.1143 94.4634V93.5669ZM94.4531 95.6089C94.4531 96.9813 94.1377 98.0853 93.5068 98.9209C92.876 99.751 92.0293 100.166 90.9668 100.166C89.8324 100.166 88.9552 99.7648 88.3354 98.9624L88.2607 100H86.8496V87.25H88.3853V92.0063C89.005 91.2371 89.86 90.8525 90.9502 90.8525C92.0404 90.8525 92.8953 91.2648 93.5151 92.0894C94.1405 92.9139 94.4531 94.0428 94.4531 95.4761V95.6089ZM92.9175 95.4346C92.9175 94.3887 92.7155 93.5807 92.3115 93.0107C91.9076 92.4408 91.3265 92.1558 90.5684 92.1558C89.5557 92.1558 88.828 92.6261 88.3853 93.5669V97.4517C88.8556 98.3924 89.5889 98.8628 90.585 98.8628C91.321 98.8628 91.8937 98.5778 92.3032 98.0078C92.7127 97.4378 92.9175 96.5801 92.9175 95.4346ZM101.625 97.6177C101.625 97.2026 101.467 96.8817 101.152 96.6548C100.842 96.4224 100.297 96.2231 99.5166 96.0571C98.7419 95.8911 98.1248 95.6919 97.6655 95.4595C97.2118 95.2271 96.8742 94.9504 96.6528 94.6294C96.437 94.3084 96.3291 93.9266 96.3291 93.4839C96.3291 92.7479 96.639 92.1253 97.2588 91.6162C97.8841 91.1071 98.681 90.8525 99.6494 90.8525C100.668 90.8525 101.492 91.1154 102.123 91.6411C102.759 92.1668 103.078 92.8392 103.078 93.6582H101.534C101.534 93.2376 101.354 92.8752 100.994 92.5708C100.64 92.2664 100.192 92.1143 99.6494 92.1143C99.0905 92.1143 98.6533 92.236 98.3379 92.4795C98.0225 92.723 97.8647 93.0412 97.8647 93.4341C97.8647 93.8049 98.0114 94.0843 98.3047 94.2725C98.598 94.4606 99.1265 94.6405 99.8901 94.812C100.659 94.9836 101.282 95.1883 101.758 95.4263C102.234 95.6642 102.585 95.952 102.812 96.2896C103.044 96.6216 103.161 97.0283 103.161 97.5098C103.161 98.3122 102.84 98.9569 102.198 99.4438C101.556 99.9253 100.723 100.166 99.6992 100.166C98.9798 100.166 98.3434 100.039 97.79 99.7842C97.2367 99.5296 96.8022 99.1755 96.4868 98.7217C96.1769 98.2624 96.022 97.7671 96.022 97.2358H97.5576C97.5853 97.7505 97.79 98.16 98.1719 98.4644C98.5592 98.7632 99.0684 98.9126 99.6992 98.9126C100.28 98.9126 100.745 98.7964 101.094 98.564C101.448 98.326 101.625 98.0106 101.625 97.6177ZM106.83 100H105.294V91.0186H106.83V100ZM105.169 88.6362C105.169 88.3872 105.244 88.1769 105.394 88.0054C105.549 87.8338 105.775 87.748 106.074 87.748C106.373 87.748 106.6 87.8338 106.755 88.0054C106.91 88.1769 106.987 88.3872 106.987 88.6362C106.987 88.8853 106.91 89.0928 106.755 89.2588C106.6 89.4248 106.373 89.5078 106.074 89.5078C105.775 89.5078 105.549 89.4248 105.394 89.2588C105.244 89.0928 105.169 88.8853 105.169 88.6362ZM108.921 95.4346C108.921 94.0566 109.248 92.9499 109.901 92.1143C110.554 91.2731 111.409 90.8525 112.466 90.8525C113.517 90.8525 114.35 91.2122 114.964 91.9316V87.25H116.5V100H115.089L115.014 99.0371C114.4 99.7897 113.545 100.166 112.449 100.166C111.409 100.166 110.559 99.7399 109.901 98.8877C109.248 98.0355 108.921 96.9232 108.921 95.5508V95.4346ZM110.457 95.6089C110.457 96.6271 110.667 97.424 111.088 97.9995C111.508 98.575 112.09 98.8628 112.831 98.8628C113.805 98.8628 114.516 98.4256 114.964 97.5513V93.4258C114.505 92.5791 113.799 92.1558 112.848 92.1558C112.095 92.1558 111.508 92.4463 111.088 93.0273C110.667 93.6084 110.457 94.4689 110.457 95.6089ZM120.559 100H119.023V91.0186H120.559V100ZM118.899 88.6362C118.899 88.3872 118.974 88.1769 119.123 88.0054C119.278 87.8338 119.505 87.748 119.804 87.748C120.103 87.748 120.329 87.8338 120.484 88.0054C120.639 88.1769 120.717 88.3872 120.717 88.6362C120.717 88.8853 120.639 89.0928 120.484 89.2588C120.329 89.4248 120.103 89.5078 119.804 89.5078C119.505 89.5078 119.278 89.4248 119.123 89.2588C118.974 89.0928 118.899 88.8853 118.899 88.6362ZM128.569 100C128.481 99.8229 128.409 99.5075 128.354 99.0537C127.64 99.7952 126.787 100.166 125.797 100.166C124.911 100.166 124.184 99.917 123.614 99.4189C123.049 98.9154 122.767 98.279 122.767 97.5098C122.767 96.5745 123.121 95.8496 123.83 95.335C124.543 94.8148 125.545 94.5547 126.834 94.5547H128.329V93.8491C128.329 93.3123 128.168 92.8862 127.847 92.5708C127.526 92.2498 127.053 92.0894 126.428 92.0894C125.88 92.0894 125.421 92.2277 125.05 92.5044C124.679 92.7811 124.494 93.1159 124.494 93.5088H122.95C122.95 93.0605 123.107 92.6289 123.423 92.2139C123.744 91.7933 124.175 91.4613 124.718 91.2178C125.266 90.9743 125.866 90.8525 126.519 90.8525C127.554 90.8525 128.365 91.1126 128.951 91.6328C129.538 92.1475 129.842 92.8586 129.864 93.7661V97.8999C129.864 98.7244 129.969 99.3802 130.18 99.8672V100H128.569ZM126.021 98.8296C126.502 98.8296 126.959 98.7051 127.391 98.4561C127.822 98.207 128.135 97.8833 128.329 97.4849V95.6421H127.125C125.243 95.6421 124.303 96.1927 124.303 97.2939C124.303 97.7754 124.463 98.1517 124.784 98.4229C125.105 98.694 125.517 98.8296 126.021 98.8296ZM133.724 91.0186L133.774 92.1475C134.46 91.2842 135.357 90.8525 136.463 90.8525C138.361 90.8525 139.319 91.9233 139.335 94.0649V100H137.8V94.0566C137.794 93.4092 137.645 92.9305 137.352 92.6206C137.064 92.3107 136.613 92.1558 135.999 92.1558C135.5 92.1558 135.063 92.2886 134.687 92.5542C134.311 92.8198 134.017 93.1685 133.807 93.6001V100H132.271V91.0186H133.724Z" fill="black"/>
<circle cx="56" cy="94" r="5" fill="#C4C4C4"/>
<path d="M330.461 78.9141L334.413 88.7754L338.364 78.9141H340.431V91H338.837V86.2935L338.986 81.2134L335.019 91H333.798L329.839 81.2383L329.997 86.2935V91H328.403V78.9141H330.461ZM345.942 88.7505L348.034 82.0186H349.678L346.067 92.3862C345.508 93.8804 344.62 94.6274 343.402 94.6274L343.112 94.6025L342.539 94.4946V93.2495L342.954 93.2827C343.474 93.2827 343.878 93.1776 344.166 92.9673C344.459 92.757 344.7 92.3724 344.888 91.8135L345.229 90.9004L342.024 82.0186H343.701L345.942 88.7505ZM360.502 88.6177C360.502 88.2026 360.344 87.8817 360.029 87.6548C359.719 87.4224 359.174 87.2231 358.394 87.0571C357.619 86.8911 357.002 86.6919 356.542 86.4595C356.089 86.2271 355.751 85.9504 355.53 85.6294C355.314 85.3084 355.206 84.9266 355.206 84.4839C355.206 83.7479 355.516 83.1253 356.136 82.6162C356.761 82.1071 357.558 81.8525 358.526 81.8525C359.545 81.8525 360.369 82.1154 361 82.6411C361.636 83.1668 361.955 83.8392 361.955 84.6582H360.411C360.411 84.2376 360.231 83.8752 359.871 83.5708C359.517 83.2664 359.069 83.1143 358.526 83.1143C357.967 83.1143 357.53 83.236 357.215 83.4795C356.899 83.723 356.742 84.0412 356.742 84.4341C356.742 84.8049 356.888 85.0843 357.182 85.2725C357.475 85.4606 358.003 85.6405 358.767 85.812C359.536 85.9836 360.159 86.1883 360.635 86.4263C361.111 86.6642 361.462 86.952 361.689 87.2896C361.921 87.6216 362.038 88.0283 362.038 88.5098C362.038 89.3122 361.717 89.9569 361.075 90.4438C360.433 90.9253 359.6 91.166 358.576 91.166C357.857 91.166 357.22 91.0387 356.667 90.7842C356.114 90.5296 355.679 90.1755 355.364 89.7217C355.054 89.2624 354.899 88.7671 354.899 88.2358H356.435C356.462 88.7505 356.667 89.16 357.049 89.4644C357.436 89.7632 357.945 89.9126 358.576 89.9126C359.157 89.9126 359.622 89.7964 359.971 89.564C360.325 89.326 360.502 89.0106 360.502 88.6177ZM365.707 91H364.171V82.0186H365.707V91ZM364.046 79.6362C364.046 79.3872 364.121 79.1769 364.271 79.0054C364.425 78.8338 364.652 78.748 364.951 78.748C365.25 78.748 365.477 78.8338 365.632 79.0054C365.787 79.1769 365.864 79.3872 365.864 79.6362C365.864 79.8853 365.787 80.0928 365.632 80.2588C365.477 80.4248 365.25 80.5078 364.951 80.5078C364.652 80.5078 364.425 80.4248 364.271 80.2588C364.121 80.0928 364.046 79.8853 364.046 79.6362ZM367.798 86.4346C367.798 85.0566 368.125 83.9499 368.778 83.1143C369.431 82.2731 370.286 81.8525 371.343 81.8525C372.394 81.8525 373.227 82.2122 373.841 82.9316V78.25H375.377V91H373.966L373.891 90.0371C373.277 90.7897 372.422 91.166 371.326 91.166C370.286 91.166 369.436 90.7399 368.778 89.8877C368.125 89.0355 367.798 87.9232 367.798 86.5508V86.4346ZM369.334 86.6089C369.334 87.6271 369.544 88.424 369.965 88.9995C370.385 89.575 370.966 89.8628 371.708 89.8628C372.682 89.8628 373.393 89.4256 373.841 88.5513V84.4258C373.382 83.5791 372.676 83.1558 371.725 83.1558C370.972 83.1558 370.385 83.4463 369.965 84.0273C369.544 84.6084 369.334 85.4689 369.334 86.6089ZM381.495 91.166C380.277 91.166 379.287 90.7676 378.523 89.9707C377.759 89.1683 377.377 88.0975 377.377 86.7583V86.4761C377.377 85.5851 377.546 84.791 377.884 84.0938C378.227 83.391 378.703 82.8431 379.312 82.4502C379.926 82.0518 380.59 81.8525 381.304 81.8525C382.471 81.8525 383.379 82.2371 384.026 83.0063C384.674 83.7756 384.998 84.8768 384.998 86.3101V86.9492H378.913C378.935 87.8346 379.193 88.5513 379.685 89.0991C380.183 89.6414 380.814 89.9126 381.578 89.9126C382.12 89.9126 382.579 89.8019 382.956 89.5806C383.332 89.3592 383.661 89.0659 383.943 88.7007L384.881 89.4312C384.129 90.5877 383 91.166 381.495 91.166ZM381.304 83.1143C380.684 83.1143 380.164 83.3411 379.743 83.7949C379.323 84.2432 379.062 84.874 378.963 85.6875H383.462V85.5713C383.418 84.791 383.207 84.1878 382.831 83.7617C382.455 83.3301 381.946 83.1143 381.304 83.1143ZM398.586 86.6089C398.586 87.9757 398.273 89.077 397.648 89.9126C397.023 90.7482 396.176 91.166 395.108 91.166C394.018 91.166 393.16 90.8201 392.535 90.1284V94.4531H390.999V82.0186H392.402L392.477 83.0146C393.102 82.2399 393.971 81.8525 395.083 81.8525C396.162 81.8525 397.014 82.2593 397.64 83.0728C398.271 83.8862 398.586 85.0179 398.586 86.4678V86.6089ZM397.05 86.4346C397.05 85.4219 396.834 84.6222 396.403 84.0356C395.971 83.4491 395.379 83.1558 394.626 83.1558C393.697 83.1558 393 83.568 392.535 84.3926V88.6841C392.994 89.5031 393.697 89.9126 394.643 89.9126C395.379 89.9126 395.963 89.6221 396.395 89.041C396.832 88.4544 397.05 87.5856 397.05 86.4346ZM404.886 83.3965C404.654 83.3577 404.402 83.3384 404.131 83.3384C403.124 83.3384 402.44 83.7673 402.081 84.625V91H400.545V82.0186H402.039L402.064 83.0562C402.568 82.2537 403.281 81.8525 404.206 81.8525C404.504 81.8525 404.731 81.8913 404.886 81.9688V83.3965ZM405.733 86.4263C405.733 85.5464 405.904 84.755 406.248 84.0522C406.596 83.3494 407.078 82.8071 407.692 82.4253C408.312 82.0435 409.017 81.8525 409.809 81.8525C411.032 81.8525 412.019 82.2759 412.772 83.1226C413.53 83.9692 413.909 85.0954 413.909 86.501V86.6089C413.909 87.4832 413.74 88.269 413.403 88.9663C413.071 89.658 412.592 90.1976 411.967 90.585C411.347 90.9723 410.633 91.166 409.825 91.166C408.608 91.166 407.62 90.7427 406.862 89.896C406.109 89.0493 405.733 87.9287 405.733 86.5342V86.4263ZM407.277 86.6089C407.277 87.605 407.507 88.4046 407.966 89.0078C408.431 89.611 409.05 89.9126 409.825 89.9126C410.605 89.9126 411.225 89.6082 411.685 88.9995C412.144 88.3853 412.374 87.5275 412.374 86.4263C412.374 85.4412 412.138 84.6444 411.668 84.0356C411.203 83.4214 410.583 83.1143 409.809 83.1143C409.05 83.1143 408.439 83.4159 407.974 84.019C407.509 84.6222 407.277 85.4855 407.277 86.6089ZM417.42 82.0186V92.0376C417.42 93.7642 416.637 94.6274 415.071 94.6274C414.734 94.6274 414.421 94.5776 414.133 94.478V93.2495C414.31 93.2938 414.543 93.3159 414.831 93.3159C415.174 93.3159 415.434 93.2218 415.611 93.0337C415.793 92.8511 415.885 92.5301 415.885 92.0708V82.0186H417.42ZM415.727 79.6362C415.727 79.3927 415.802 79.1852 415.951 79.0137C416.106 78.8366 416.33 78.748 416.624 78.748C416.922 78.748 417.149 78.8338 417.304 79.0054C417.459 79.1769 417.537 79.3872 417.537 79.6362C417.537 79.8853 417.459 80.0928 417.304 80.2588C417.149 80.4248 416.922 80.5078 416.624 80.5078C416.325 80.5078 416.101 80.4248 415.951 80.2588C415.802 80.0928 415.727 79.8853 415.727 79.6362ZM423.629 91.166C422.412 91.166 421.421 90.7676 420.658 89.9707C419.894 89.1683 419.512 88.0975 419.512 86.7583V86.4761C419.512 85.5851 419.681 84.791 420.019 84.0938C420.362 83.391 420.838 82.8431 421.446 82.4502C422.061 82.0518 422.725 81.8525 423.438 81.8525C424.606 81.8525 425.514 82.2371 426.161 83.0063C426.809 83.7756 427.132 84.8768 427.132 86.3101V86.9492H421.048C421.07 87.8346 421.327 88.5513 421.82 89.0991C422.318 89.6414 422.949 89.9126 423.712 89.9126C424.255 89.9126 424.714 89.8019 425.09 89.5806C425.467 89.3592 425.796 89.0659 426.078 88.7007L427.016 89.4312C426.264 90.5877 425.135 91.166 423.629 91.166ZM423.438 83.1143C422.819 83.1143 422.299 83.3411 421.878 83.7949C421.457 84.2432 421.197 84.874 421.098 85.6875H425.597V85.5713C425.552 84.791 425.342 84.1878 424.966 83.7617C424.59 83.3301 424.08 83.1143 423.438 83.1143ZM432.52 89.9126C433.067 89.9126 433.546 89.7466 433.956 89.4146C434.365 89.0825 434.592 88.6675 434.636 88.1694H436.089C436.061 88.6841 435.884 89.1738 435.558 89.6387C435.231 90.1035 434.794 90.4743 434.246 90.751C433.704 91.0277 433.128 91.166 432.52 91.166C431.297 91.166 430.323 90.7593 429.598 89.9458C428.878 89.1268 428.519 88.009 428.519 86.5923V86.335C428.519 85.4606 428.679 84.6831 429 84.0024C429.321 83.3218 429.78 82.7933 430.378 82.417C430.981 82.0407 431.692 81.8525 432.511 81.8525C433.518 81.8525 434.354 82.1541 435.018 82.7573C435.688 83.3605 436.045 84.1436 436.089 85.1064H434.636C434.592 84.5254 434.371 84.0495 433.972 83.6787C433.579 83.3024 433.092 83.1143 432.511 83.1143C431.731 83.1143 431.125 83.3965 430.693 83.9609C430.267 84.5199 430.054 85.3306 430.054 86.3931V86.6836C430.054 87.7184 430.267 88.5153 430.693 89.0742C431.119 89.6331 431.728 89.9126 432.52 89.9126ZM439.899 79.8438V82.0186H441.576V83.2056H439.899V88.7754C439.899 89.1351 439.974 89.4062 440.123 89.5889C440.272 89.766 440.527 89.8545 440.887 89.8545C441.064 89.8545 441.307 89.8213 441.617 89.7549V91C441.213 91.1107 440.82 91.166 440.438 91.166C439.752 91.166 439.235 90.9585 438.886 90.5435C438.538 90.1284 438.363 89.5391 438.363 88.7754V83.2056H436.728V82.0186H438.363V79.8438H439.899ZM448.606 88.6177C448.606 88.2026 448.449 87.8817 448.133 87.6548C447.823 87.4224 447.278 87.2231 446.498 87.0571C445.723 86.8911 445.106 86.6919 444.647 86.4595C444.193 86.2271 443.856 85.9504 443.634 85.6294C443.418 85.3084 443.311 84.9266 443.311 84.4839C443.311 83.7479 443.62 83.1253 444.24 82.6162C444.866 82.1071 445.662 81.8525 446.631 81.8525C447.649 81.8525 448.474 82.1154 449.104 82.6411C449.741 83.1668 450.059 83.8392 450.059 84.6582H448.515C448.515 84.2376 448.335 83.8752 447.976 83.5708C447.621 83.2664 447.173 83.1143 446.631 83.1143C446.072 83.1143 445.635 83.236 445.319 83.4795C445.004 83.723 444.846 84.0412 444.846 84.4341C444.846 84.8049 444.993 85.0843 445.286 85.2725C445.579 85.4606 446.108 85.6405 446.872 85.812C447.641 85.9836 448.263 86.1883 448.739 86.4263C449.215 86.6642 449.567 86.952 449.793 87.2896C450.026 87.6216 450.142 88.0283 450.142 88.5098C450.142 89.3122 449.821 89.9569 449.179 90.4438C448.537 90.9253 447.704 91.166 446.681 91.166C445.961 91.166 445.325 91.0387 444.771 90.7842C444.218 90.5296 443.784 90.1755 443.468 89.7217C443.158 89.2624 443.003 88.7671 443.003 88.2358H444.539C444.567 88.7505 444.771 89.16 445.153 89.4644C445.541 89.7632 446.05 89.9126 446.681 89.9126C447.262 89.9126 447.727 89.7964 448.075 89.564C448.429 89.326 448.606 89.0106 448.606 88.6177Z" fill="black"/>
<circle cx="309" cy="85" r="5" fill="#C4C4C4"/>
<path d="M83.7534 139.226H79.8687V150H78.2832V139.226H74.4067V137.914H83.7534V139.226ZM86.8413 142.106C87.522 141.27 88.4074 140.853 89.4976 140.853C91.3957 140.853 92.353 141.923 92.3696 144.065V150H90.834V144.057C90.8285 143.409 90.679 142.931 90.3857 142.621C90.098 142.311 89.647 142.156 89.0327 142.156C88.5347 142.156 88.0975 142.289 87.7212 142.554C87.3449 142.82 87.0516 143.168 86.8413 143.6V150H85.3057V137.25H86.8413V142.106ZM96.3374 150H94.8018V141.019H96.3374V150ZM94.6772 138.636C94.6772 138.387 94.752 138.177 94.9014 138.005C95.0563 137.834 95.2832 137.748 95.582 137.748C95.8809 137.748 96.1077 137.834 96.2627 138.005C96.4176 138.177 96.4951 138.387 96.4951 138.636C96.4951 138.885 96.4176 139.093 96.2627 139.259C96.1077 139.425 95.8809 139.508 95.582 139.508C95.2832 139.508 95.0563 139.425 94.9014 139.259C94.752 139.093 94.6772 138.885 94.6772 138.636ZM100.255 141.019L100.305 142.147C100.991 141.284 101.888 140.853 102.995 140.853C104.893 140.853 105.85 141.923 105.867 144.065V150H104.331V144.057C104.326 143.409 104.176 142.931 103.883 142.621C103.595 142.311 103.144 142.156 102.53 142.156C102.032 142.156 101.595 142.289 101.218 142.554C100.842 142.82 100.549 143.168 100.338 143.6V150H98.8027V141.019H100.255ZM110.689 145.841L109.727 146.846V150H108.191V137.25H109.727V144.961L110.548 143.974L113.346 141.019H115.213L111.719 144.771L115.62 150H113.819L110.689 145.841ZM118.882 138.844V141.019H120.559V142.206H118.882V147.775C118.882 148.135 118.957 148.406 119.106 148.589C119.256 148.766 119.51 148.854 119.87 148.854C120.047 148.854 120.291 148.821 120.601 148.755V150C120.197 150.111 119.804 150.166 119.422 150.166C118.736 150.166 118.218 149.958 117.87 149.543C117.521 149.128 117.347 148.539 117.347 147.775V142.206H115.711V141.019H117.347V138.844H118.882ZM121.788 145.426C121.788 144.546 121.959 143.755 122.302 143.052C122.651 142.349 123.132 141.807 123.747 141.425C124.366 141.043 125.072 140.853 125.863 140.853C127.086 140.853 128.074 141.276 128.827 142.123C129.585 142.969 129.964 144.095 129.964 145.501V145.609C129.964 146.483 129.795 147.269 129.458 147.966C129.125 148.658 128.647 149.198 128.021 149.585C127.402 149.972 126.688 150.166 125.88 150.166C124.662 150.166 123.675 149.743 122.917 148.896C122.164 148.049 121.788 146.929 121.788 145.534V145.426ZM123.332 145.609C123.332 146.605 123.561 147.405 124.021 148.008C124.485 148.611 125.105 148.913 125.88 148.913C126.66 148.913 127.28 148.608 127.739 148C128.199 147.385 128.428 146.528 128.428 145.426C128.428 144.441 128.193 143.644 127.723 143.036C127.258 142.421 126.638 142.114 125.863 142.114C125.105 142.114 124.494 142.416 124.029 143.019C123.564 143.622 123.332 144.486 123.332 145.609ZM131.483 145.426C131.483 144.546 131.654 143.755 131.998 143.052C132.346 142.349 132.828 141.807 133.442 141.425C134.062 141.043 134.767 140.853 135.559 140.853C136.782 140.853 137.769 141.276 138.522 142.123C139.28 142.969 139.659 144.095 139.659 145.501V145.609C139.659 146.483 139.49 147.269 139.153 147.966C138.821 148.658 138.342 149.198 137.717 149.585C137.097 149.972 136.383 150.166 135.575 150.166C134.358 150.166 133.37 149.743 132.612 148.896C131.859 148.049 131.483 146.929 131.483 145.534V145.426ZM133.027 145.609C133.027 146.605 133.257 147.405 133.716 148.008C134.181 148.611 134.8 148.913 135.575 148.913C136.355 148.913 136.975 148.608 137.435 148C137.894 147.385 138.124 146.528 138.124 145.426C138.124 144.441 137.888 143.644 137.418 143.036C136.953 142.421 136.333 142.114 135.559 142.114C134.8 142.114 134.189 142.416 133.724 143.019C133.259 143.622 133.027 144.486 133.027 145.609ZM143.253 150H141.718V137.25H143.253V150Z" fill="black"/>
<circle cx="56" cy="144" r="5" fill="#C4C4C4"/>
<rect x="74" y="124" width="87" height="11" rx="3" fill="#C9D9BC"/>
<rect x="74.5" y="124.5" width="86" height="10" rx="2.5" stroke="black" stroke-opacity="0.2"/>
<path d="M88.0361 125.891L90.3604 131.691L92.6846 125.891H93.9004V133H92.9629V130.231L93.0508 127.243L90.7168 133H89.999L87.6699 127.258L87.7627 130.231V133H86.8252V125.891H88.0361ZM97.1426 131.677L98.373 127.717H99.3398L97.2158 133.815C96.887 134.694 96.3646 135.134 95.6484 135.134L95.4775 135.119L95.1406 135.056V134.323L95.3848 134.343C95.6908 134.343 95.9284 134.281 96.0977 134.157C96.2702 134.034 96.4118 133.807 96.5225 133.479L96.7227 132.941L94.8379 127.717H95.8242L97.1426 131.677ZM105.707 131.599C105.707 131.354 105.614 131.166 105.429 131.032C105.246 130.896 104.926 130.778 104.467 130.681C104.011 130.583 103.648 130.466 103.378 130.329C103.111 130.192 102.912 130.03 102.782 129.841C102.655 129.652 102.592 129.427 102.592 129.167C102.592 128.734 102.774 128.368 103.139 128.068C103.507 127.769 103.975 127.619 104.545 127.619C105.144 127.619 105.629 127.774 106 128.083C106.374 128.392 106.562 128.788 106.562 129.27H105.653C105.653 129.022 105.548 128.809 105.336 128.63C105.128 128.451 104.864 128.361 104.545 128.361C104.216 128.361 103.959 128.433 103.773 128.576C103.588 128.719 103.495 128.907 103.495 129.138C103.495 129.356 103.581 129.52 103.754 129.631C103.926 129.742 104.237 129.847 104.687 129.948C105.139 130.049 105.505 130.17 105.785 130.31C106.065 130.45 106.272 130.619 106.405 130.817C106.542 131.013 106.61 131.252 106.61 131.535C106.61 132.007 106.422 132.386 106.044 132.673C105.666 132.956 105.176 133.098 104.574 133.098C104.151 133.098 103.777 133.023 103.451 132.873C103.126 132.723 102.87 132.515 102.685 132.248C102.502 131.978 102.411 131.687 102.411 131.374H103.314C103.331 131.677 103.451 131.918 103.676 132.097C103.904 132.272 104.203 132.36 104.574 132.36C104.916 132.36 105.189 132.292 105.395 132.155C105.603 132.015 105.707 131.83 105.707 131.599ZM108.769 133H107.865V127.717H108.769V133ZM107.792 126.315C107.792 126.169 107.836 126.045 107.924 125.944C108.015 125.843 108.148 125.793 108.324 125.793C108.5 125.793 108.633 125.843 108.725 125.944C108.816 126.045 108.861 126.169 108.861 126.315C108.861 126.462 108.816 126.584 108.725 126.682C108.633 126.779 108.5 126.828 108.324 126.828C108.148 126.828 108.015 126.779 107.924 126.682C107.836 126.584 107.792 126.462 107.792 126.315ZM109.999 130.314C109.999 129.504 110.191 128.853 110.575 128.361C110.959 127.867 111.462 127.619 112.084 127.619C112.702 127.619 113.192 127.831 113.554 128.254V125.5H114.457V133H113.627L113.583 132.434C113.222 132.876 112.719 133.098 112.074 133.098C111.462 133.098 110.963 132.847 110.575 132.346C110.191 131.844 109.999 131.19 109.999 130.383V130.314ZM110.902 130.417C110.902 131.016 111.026 131.485 111.273 131.823C111.521 132.162 111.863 132.331 112.299 132.331C112.872 132.331 113.29 132.074 113.554 131.56V129.133C113.284 128.635 112.868 128.386 112.309 128.386C111.866 128.386 111.521 128.557 111.273 128.898C111.026 129.24 110.902 129.746 110.902 130.417ZM118.056 133.098C117.34 133.098 116.757 132.863 116.308 132.395C115.858 131.923 115.634 131.293 115.634 130.505V130.339C115.634 129.815 115.733 129.348 115.932 128.938C116.133 128.524 116.413 128.202 116.771 127.971C117.133 127.736 117.523 127.619 117.943 127.619C118.63 127.619 119.164 127.845 119.545 128.298C119.926 128.75 120.116 129.398 120.116 130.241V130.617H116.537C116.55 131.138 116.701 131.56 116.991 131.882C117.284 132.201 117.655 132.36 118.104 132.36C118.424 132.36 118.694 132.295 118.915 132.165C119.136 132.035 119.33 131.862 119.496 131.647L120.048 132.077C119.605 132.757 118.941 133.098 118.056 133.098ZM117.943 128.361C117.579 128.361 117.273 128.495 117.025 128.762C116.778 129.025 116.625 129.396 116.566 129.875H119.213V129.807C119.187 129.348 119.063 128.993 118.842 128.742C118.62 128.488 118.321 128.361 117.943 128.361ZM128.109 130.417C128.109 131.221 127.925 131.869 127.558 132.36C127.19 132.852 126.692 133.098 126.063 133.098C125.422 133.098 124.918 132.894 124.55 132.487V135.031H123.646V127.717H124.472L124.516 128.303C124.883 127.847 125.395 127.619 126.049 127.619C126.684 127.619 127.185 127.858 127.553 128.337C127.924 128.815 128.109 129.481 128.109 130.334V130.417ZM127.206 130.314C127.206 129.719 127.079 129.248 126.825 128.903C126.571 128.558 126.223 128.386 125.78 128.386C125.233 128.386 124.823 128.628 124.55 129.113V131.638C124.82 132.119 125.233 132.36 125.79 132.36C126.223 132.36 126.566 132.189 126.82 131.848C127.077 131.503 127.206 130.992 127.206 130.314ZM131.815 128.527C131.679 128.505 131.531 128.493 131.371 128.493C130.779 128.493 130.377 128.745 130.165 129.25V133H129.262V127.717H130.141L130.155 128.327C130.451 127.855 130.871 127.619 131.415 127.619C131.591 127.619 131.724 127.642 131.815 127.688V128.527ZM132.313 130.31C132.313 129.792 132.414 129.326 132.616 128.913C132.821 128.5 133.104 128.181 133.466 127.956C133.83 127.731 134.245 127.619 134.711 127.619C135.43 127.619 136.011 127.868 136.454 128.366C136.9 128.864 137.123 129.527 137.123 130.354V130.417C137.123 130.931 137.024 131.394 136.825 131.804C136.63 132.211 136.348 132.528 135.98 132.756C135.616 132.984 135.196 133.098 134.721 133.098C134.005 133.098 133.424 132.849 132.978 132.351C132.535 131.853 132.313 131.193 132.313 130.373V130.31ZM133.222 130.417C133.222 131.003 133.357 131.473 133.627 131.828C133.9 132.183 134.265 132.36 134.721 132.36C135.18 132.36 135.544 132.181 135.814 131.823C136.085 131.462 136.22 130.957 136.22 130.31C136.22 129.73 136.081 129.261 135.805 128.903C135.531 128.542 135.167 128.361 134.711 128.361C134.265 128.361 133.905 128.539 133.632 128.894C133.358 129.248 133.222 129.756 133.222 130.417ZM139.188 127.717V133.61C139.188 134.626 138.728 135.134 137.807 135.134C137.608 135.134 137.424 135.104 137.255 135.046V134.323C137.359 134.349 137.496 134.362 137.665 134.362C137.867 134.362 138.02 134.307 138.124 134.196C138.231 134.089 138.285 133.9 138.285 133.63V127.717H139.188ZM138.192 126.315C138.192 126.172 138.236 126.05 138.324 125.949C138.415 125.845 138.547 125.793 138.72 125.793C138.896 125.793 139.029 125.843 139.12 125.944C139.211 126.045 139.257 126.169 139.257 126.315C139.257 126.462 139.211 126.584 139.12 126.682C139.029 126.779 138.896 126.828 138.72 126.828C138.544 126.828 138.412 126.779 138.324 126.682C138.236 126.584 138.192 126.462 138.192 126.315ZM142.841 133.098C142.125 133.098 141.542 132.863 141.093 132.395C140.644 131.923 140.419 131.293 140.419 130.505V130.339C140.419 129.815 140.518 129.348 140.717 128.938C140.919 128.524 141.199 128.202 141.557 127.971C141.918 127.736 142.309 127.619 142.729 127.619C143.415 127.619 143.949 127.845 144.33 128.298C144.711 128.75 144.901 129.398 144.901 130.241V130.617H141.322C141.335 131.138 141.487 131.56 141.776 131.882C142.069 132.201 142.44 132.36 142.89 132.36C143.209 132.36 143.479 132.295 143.7 132.165C143.922 132.035 144.115 131.862 144.281 131.647L144.833 132.077C144.39 132.757 143.726 133.098 142.841 133.098ZM142.729 128.361C142.364 128.361 142.058 128.495 141.811 128.762C141.563 129.025 141.41 129.396 141.352 129.875H143.998V129.807C143.972 129.348 143.848 128.993 143.627 128.742C143.406 128.488 143.106 128.361 142.729 128.361ZM148.07 132.36C148.393 132.36 148.674 132.263 148.915 132.067C149.156 131.872 149.289 131.628 149.315 131.335H150.17C150.154 131.638 150.049 131.926 149.857 132.199C149.665 132.473 149.408 132.691 149.086 132.854C148.767 133.016 148.428 133.098 148.07 133.098C147.351 133.098 146.778 132.858 146.352 132.38C145.928 131.898 145.717 131.241 145.717 130.407V130.256C145.717 129.742 145.811 129.284 146 128.884C146.189 128.483 146.459 128.173 146.811 127.951C147.165 127.73 147.584 127.619 148.065 127.619C148.658 127.619 149.149 127.797 149.54 128.151C149.934 128.506 150.144 128.967 150.17 129.533H149.315C149.289 129.191 149.159 128.911 148.925 128.693C148.694 128.472 148.407 128.361 148.065 128.361C147.606 128.361 147.25 128.527 146.996 128.859C146.745 129.188 146.62 129.665 146.62 130.29V130.461C146.62 131.07 146.745 131.538 146.996 131.867C147.247 132.196 147.605 132.36 148.07 132.36ZM152.411 126.438V127.717H153.397V128.415H152.411V131.691C152.411 131.903 152.455 132.062 152.543 132.17C152.631 132.274 152.781 132.326 152.992 132.326C153.096 132.326 153.24 132.307 153.422 132.268V133C153.184 133.065 152.953 133.098 152.729 133.098C152.325 133.098 152.021 132.976 151.815 132.731C151.61 132.487 151.508 132.141 151.508 131.691V128.415H150.546V127.717H151.508V126.438H152.411ZM157.533 131.599C157.533 131.354 157.44 131.166 157.255 131.032C157.073 130.896 156.752 130.778 156.293 130.681C155.837 130.583 155.474 130.466 155.204 130.329C154.937 130.192 154.739 130.03 154.608 129.841C154.481 129.652 154.418 129.427 154.418 129.167C154.418 128.734 154.6 128.368 154.965 128.068C155.333 127.769 155.801 127.619 156.371 127.619C156.97 127.619 157.455 127.774 157.826 128.083C158.201 128.392 158.388 128.788 158.388 129.27H157.479C157.479 129.022 157.374 128.809 157.162 128.63C156.954 128.451 156.69 128.361 156.371 128.361C156.042 128.361 155.785 128.433 155.6 128.576C155.414 128.719 155.321 128.907 155.321 129.138C155.321 129.356 155.408 129.52 155.58 129.631C155.753 129.742 156.063 129.847 156.513 129.948C156.965 130.049 157.331 130.17 157.611 130.31C157.891 130.45 158.098 130.619 158.231 130.817C158.368 131.013 158.437 131.252 158.437 131.535C158.437 132.007 158.248 132.386 157.87 132.673C157.493 132.956 157.003 133.098 156.4 133.098C155.977 133.098 155.603 133.023 155.277 132.873C154.952 132.723 154.696 132.515 154.511 132.248C154.328 131.978 154.237 131.687 154.237 131.374H155.141C155.157 131.677 155.277 131.918 155.502 132.097C155.73 132.272 156.029 132.36 156.4 132.36C156.742 132.36 157.016 132.292 157.221 132.155C157.429 132.015 157.533 131.83 157.533 131.599Z" fill="#2B3226"/>
<circle cx="80.5" cy="129.5" r="2.5" fill="#57624E"/>
<path d="M160.748 142.841C160.384 143.256 160.426 143.888 160.841 144.252L167.61 150.183C168.026 150.547 168.657 150.505 169.021 150.09C169.385 149.675 169.344 149.043 168.928 148.679L162.911 143.407L168.183 137.39C168.547 136.974 168.505 136.343 168.09 135.979C167.675 135.615 167.043 135.656 166.679 136.072L160.748 142.841ZM313.752 134.159C314.116 133.744 314.074 133.112 313.659 132.748L306.89 126.817C306.474 126.453 305.843 126.495 305.479 126.91C305.115 127.325 305.156 127.957 305.572 128.321L311.589 133.593L306.317 139.61C305.953 140.026 305.995 140.657 306.41 141.021C306.825 141.385 307.457 141.344 307.821 140.928L313.752 134.159ZM161.566 144.498L313.066 134.498L312.934 132.502L161.434 142.502L161.566 144.498Z" fill="black" fill-opacity="0.6"/>
</svg>
